<?xml version="1.0" encoding="UTF-8"?>
<svg version="1.1" xmlns="http://www.w3.org/2000/svg" width="64" height="64">
<path d="M0 0 C1.3931543 -0.0299707 1.3931543 -0.0299707 2.81445312 -0.06054688 C8.72746374 -0.05633833 12.03858939 0.56192053 16.5625 4.4375 C19.66819931 7.97157163 20.69004283 10.96573623 20.67602539 15.63354492 C20.67594986 16.47418991 20.67587433 17.3148349 20.67579651 18.18095398 C20.67063522 19.08416885 20.66547394 19.98738373 20.66015625 20.91796875 C20.6587413 21.84595779 20.65732635 22.77394684 20.65586853 23.73005676 C20.65026937 26.69507058 20.63771704 29.66000899 20.625 32.625 C20.61998489 34.63476453 20.615422 36.64453025 20.61132812 38.65429688 C20.60030021 43.58206032 20.58303617 48.50976737 20.5625 53.4375 C21.51125 53.416875 22.46 53.39625 23.4375 53.375 C26.5625 53.4375 26.5625 53.4375 28.5625 54.4375 C28.5625 57.7375 28.5625 61.0375 28.5625 64.4375 C20.6425 64.4375 12.7225 64.4375 4.5625 64.4375 C4.5625 55.4375 4.5625 55.4375 6.5625 53.4375 C10.1875 53.3125 10.1875 53.3125 13.5625 53.4375 C13.46876284 48.11696356 13.36262382 42.7968713 13.24511719 37.47680664 C13.20689633 35.66795582 13.1720315 33.85903079 13.140625 32.05004883 C13.09482443 29.44585698 13.03685526 26.842173 12.9765625 24.23828125 C12.96501129 23.43288406 12.95346008 22.62748688 12.94155884 21.79768372 C12.83276742 17.6342477 12.64554132 14.1583424 10.5625 10.4375 C6.97022276 8.0426485 4.2801193 8.07046763 0.125 8.0625 C-1.19371094 8.03414062 -2.51242188 8.00578125 -3.87109375 7.9765625 C-7.46135943 8.146042 -7.46135943 8.146042 -9.89453125 10.2578125 C-11.91013675 13.10517419 -11.74757503 15.02667462 -11.4375 18.4375 C-10.715625 18.52 -9.99375 18.6025 -9.25 18.6875 C-5.74681756 19.62168199 -3.99844911 20.87655089 -1.4375 23.4375 C1.18947107 29.06156522 0.789264 34.74580007 0.6875 40.8125 C0.67847656 41.83472656 0.66945312 42.85695312 0.66015625 43.91015625 C0.6367043 46.41951522 0.60388355 48.92838336 0.5625 51.4375 C1.2225 51.4375 1.8825 51.4375 2.5625 51.4375 C3.81319801 53.93889602 3.69552467 55.71142691 3.6875 58.5 C3.69136719 59.84771484 3.69136719 59.84771484 3.6953125 61.22265625 C3.5625 63.4375 3.5625 63.4375 2.5625 64.4375 C-0.10808851 64.57865161 -2.76182238 64.47997107 -5.4375 64.4375 C-5.7675 63.1175 -6.0975 61.7975 -6.4375 60.4375 C-13.0375 60.4375 -19.6375 60.4375 -26.4375 60.4375 C-26.7675 61.7575 -27.0975 63.0775 -27.4375 64.4375 C-30.0775 64.4375 -32.7175 64.4375 -35.4375 64.4375 C-35.4375 60.4775 -35.4375 56.5175 -35.4375 52.4375 C-33.9525 51.9425 -33.9525 51.9425 -32.4375 51.4375 C-32.45321045 50.70635986 -32.4689209 49.97521973 -32.48510742 49.22192383 C-32.54760351 45.8980284 -32.58653752 42.5742568 -32.625 39.25 C-32.66270508 37.52426758 -32.66270508 37.52426758 -32.70117188 35.76367188 C-32.71083984 34.65185547 -32.72050781 33.54003906 -32.73046875 32.39453125 C-32.7461792 31.37335205 -32.76188965 30.35217285 -32.77807617 29.30004883 C-32.38101164 25.9627143 -31.40936568 24.13533203 -29.4375 21.4375 C-26.47509752 19.2897582 -25.12303144 18.4375 -21.4375 18.4375 C-21.33953125 17.85742188 -21.2415625 17.27734375 -21.140625 16.6796875 C-19.97535732 10.59216842 -18.41356446 5.89216734 -13.453125 1.80078125 C-8.99556832 -0.21435771 -4.8357774 -0.03676127 0 0 Z " fill="#4991FE" transform="translate(35.4375,-0.4375)"/>
<path d="M0 0 C3.77260108 1.47153082 5.74673253 3.6200988 8 7 C8.25878906 9.51196289 8.25878906 9.51196289 8.265625 12.47265625 C8.26949219 14.06883789 8.26949219 14.06883789 8.2734375 15.69726562 C8.26570313 16.80779297 8.25796875 17.91832031 8.25 19.0625 C8.25773437 20.17689453 8.26546875 21.29128906 8.2734375 22.43945312 C8.27085938 23.50228516 8.26828125 24.56511719 8.265625 25.66015625 C8.26336914 26.63605713 8.26111328 27.61195801 8.25878906 28.61743164 C8 31 8 31 6 33 C5.67 34.65 5.34 36.3 5 38 C-2.26 38 -9.52 38 -17 38 C-17.33 36.02 -17.66 34.04 -18 32 C-19.32 31.67 -20.64 31.34 -22 31 C-22 29.02 -22 27.04 -22 25 C-21.34 25 -20.68 25 -20 25 C-20.03480469 23.83082031 -20.06960937 22.66164063 -20.10546875 21.45703125 C-20.13361716 19.90886859 -20.16091619 18.36069032 -20.1875 16.8125 C-20.21263672 16.04357422 -20.23777344 15.27464844 -20.26367188 14.48242188 C-20.32357484 9.82995839 -20.12467488 6.70758602 -17 3 C-11.76484227 -1.03451447 -6.34632691 -0.79007047 0 0 Z " fill="#DEE7FC" transform="translate(25,20)"/>
<path d="M0 0 C0.94230469 -0.02900391 1.88460937 -0.05800781 2.85546875 -0.08789062 C8.84612847 -0.14250393 12.17435571 0.35914334 16.75 4.3125 C19.85569931 7.84657163 20.87754283 10.84073623 20.86352539 15.50854492 C20.86344986 16.34918991 20.86337433 17.1898349 20.86329651 18.05595398 C20.85813522 18.95916885 20.85297394 19.86238373 20.84765625 20.79296875 C20.8462413 21.72095779 20.84482635 22.64894684 20.84336853 23.60505676 C20.83776937 26.57007058 20.82521704 29.53500899 20.8125 32.5 C20.80748489 34.50976453 20.802922 36.51953025 20.79882812 38.52929688 C20.78780021 43.45706032 20.77053617 48.38476737 20.75 53.3125 C21.69875 53.291875 22.6475 53.27125 23.625 53.25 C26.75 53.3125 26.75 53.3125 28.75 54.3125 C28.75 57.6125 28.75 60.9125 28.75 64.3125 C20.83 64.3125 12.91 64.3125 4.75 64.3125 C4.75 62.0025 4.75 59.6925 4.75 57.3125 C5.74 56.8175 5.74 56.8175 6.75 56.3125 C6.75 58.2925 6.75 60.2725 6.75 62.3125 C13.35 62.3125 19.95 62.3125 26.75 62.3125 C26.75 60.3325 26.75 58.3525 26.75 56.3125 C23.45 55.9825 20.15 55.6525 16.75 55.3125 C16.77094727 53.97550049 16.79189453 52.63850098 16.81347656 51.26098633 C16.88594715 46.29446142 16.93182577 41.32798313 16.96972656 36.36108398 C16.98982586 34.2125665 17.01710993 32.0641036 17.05175781 29.91577148 C17.10034913 26.82522095 17.12298579 23.73539445 17.140625 20.64453125 C17.17159271 19.20676079 17.17159271 19.20676079 17.20318604 17.73994446 C17.20463622 13.41730126 17.17106825 10.99758176 14.86621094 7.24755859 C10.31638899 3.08721148 5.69743741 2.97256717 -0.25 3 C-0.94867188 2.98388672 -1.64734375 2.96777344 -2.3671875 2.95117188 C-6.86214714 2.94693135 -9.68185358 3.55974353 -13.25 6.3125 C-14.59736973 7.96783995 -15.93334336 9.63262773 -17.25 11.3125 C-17.91 11.3125 -18.57 11.3125 -19.25 11.3125 C-17.85466338 6.87279258 -15.68871468 4.40734321 -12.25 1.3125 C-8.52641513 -0.54929243 -4.09840608 0.04137018 0 0 Z " fill="#4990FE" transform="translate(35.25,-0.3125)"/>
<path d="M0 0 C2.47343314 1.15819488 4.20712969 2.64038971 6.21875 4.484375 C6.92515625 5.12503906 7.6315625 5.76570313 8.359375 6.42578125 C8.89046875 6.91949219 9.4215625 7.41320313 9.96875 7.921875 C9.63875 9.241875 9.30875 10.561875 8.96875 11.921875 C7.97875 11.921875 6.98875 11.921875 5.96875 11.921875 C5.99195312 12.62054688 6.01515625 13.31921875 6.0390625 14.0390625 C6.06613281 15.40417969 6.06613281 15.40417969 6.09375 16.796875 C6.11695312 17.70179687 6.14015625 18.60671875 6.1640625 19.5390625 C5.96875 21.921875 5.96875 21.921875 3.96875 23.921875 C1.62109375 24.15234375 1.62109375 24.15234375 -1.09375 24.109375 C-1.99222656 24.10292969 -2.89070313 24.09648438 -3.81640625 24.08984375 C-6.03125 23.921875 -6.03125 23.921875 -7.03125 22.921875 C-7.10369053 20.90223301 -7.11502188 18.88020376 -7.09375 16.859375 C-7.08472656 15.75464844 -7.07570313 14.64992188 -7.06640625 13.51171875 C-7.05480469 12.65707031 -7.04320312 11.80242188 -7.03125 10.921875 C-8.35125 10.921875 -9.67125 10.921875 -11.03125 10.921875 C-11.03125 6.921875 -11.03125 6.921875 -9.203125 4.96484375 C-8.00429687 4.04638672 -8.00429687 4.04638672 -6.78125 3.109375 C-5.99234375 2.48417969 -5.2034375 1.85898437 -4.390625 1.21484375 C-2.03125 -0.078125 -2.03125 -0.078125 0 0 Z " fill="#C3D6FB" transform="translate(20.03125,28.078125)"/>
<path d="M0 0 C0.69931641 -0.01611328 1.39863281 -0.03222656 2.11914062 -0.04882812 C8.08829542 -0.05441199 11.96409756 1.2476411 16.33422852 5.30615234 C18.98855891 9.61196507 18.69005899 13.24734546 18.578125 18.20703125 C18.57246521 19.15438644 18.56680542 20.10174164 18.56097412 21.07780457 C18.53864084 24.09405735 18.4884498 27.10910822 18.4375 30.125 C18.41743107 32.17381093 18.39918099 34.22264054 18.3828125 36.27148438 C18.33878594 41.28561709 18.2697791 46.29885499 18.1875 51.3125 C17.5275 51.3125 16.8675 51.3125 16.1875 51.3125 C16.18339111 50.06637939 16.17928223 48.82025879 16.17504883 47.53637695 C16.15324633 42.90477362 16.09894485 38.27401846 16.03491211 33.64282227 C16.01174189 31.63997539 15.99733868 29.63700683 15.99194336 27.6340332 C15.98264667 24.75134546 15.94164094 21.87056881 15.89453125 18.98828125 C15.8984639 18.09538895 15.90239655 17.20249664 15.90644836 16.282547 C15.80126069 11.78174946 15.65543518 9.90094891 12.76831055 6.27026367 C8.72460173 3.2027676 5.81076492 3.10014168 0.875 3.0625 C-0.44113281 3.03671875 -1.75726563 3.0109375 -3.11328125 2.984375 C-6.97738336 3.32712535 -8.79683751 3.93200452 -11.8125 6.3125 C-13.63879794 9.37930799 -13.63879794 9.37930799 -14.8125 12.3125 C-15.4725 12.3125 -16.1325 12.3125 -16.8125 12.3125 C-16.39674938 7.46207612 -14.39590022 5.46930495 -10.8125 2.3125 C-7.12391494 -0.1465567 -4.26767814 -0.01934578 0 0 Z " fill="#C0D4FC" transform="translate(34.8125,1.6875)"/>
<path d="M0 0 C2.47343314 1.15819488 4.20712969 2.64038971 6.21875 4.484375 C6.92515625 5.12503906 7.6315625 5.76570313 8.359375 6.42578125 C8.89046875 6.91949219 9.4215625 7.41320313 9.96875 7.921875 C9.63875 9.241875 9.30875 10.561875 8.96875 11.921875 C7.97875 11.921875 6.98875 11.921875 5.96875 11.921875 C5.99195312 12.62054688 6.01515625 13.31921875 6.0390625 14.0390625 C6.06613281 15.40417969 6.06613281 15.40417969 6.09375 16.796875 C6.11695312 17.70179687 6.14015625 18.60671875 6.1640625 19.5390625 C5.96875 21.921875 5.96875 21.921875 3.96875 23.921875 C1.62109375 24.15234375 1.62109375 24.15234375 -1.09375 24.109375 C-1.99222656 24.10292969 -2.89070313 24.09648438 -3.81640625 24.08984375 C-6.03125 23.921875 -6.03125 23.921875 -7.03125 22.921875 C-7.10369053 20.90223301 -7.11502188 18.88020376 -7.09375 16.859375 C-7.08472656 15.75464844 -7.07570313 14.64992188 -7.06640625 13.51171875 C-7.05480469 12.65707031 -7.04320312 11.80242188 -7.03125 10.921875 C-8.35125 10.921875 -9.67125 10.921875 -11.03125 10.921875 C-11.03125 6.921875 -11.03125 6.921875 -9.203125 4.96484375 C-8.00429687 4.04638672 -8.00429687 4.04638672 -6.78125 3.109375 C-5.99234375 2.48417969 -5.2034375 1.85898437 -4.390625 1.21484375 C-2.03125 -0.078125 -2.03125 -0.078125 0 0 Z M-2.03125 1.921875 C-3.60965572 3.47892694 -3.60965572 3.47892694 -5.15625 5.421875 C-5.69507813 6.0715625 -6.23390625 6.72125 -6.7890625 7.390625 C-7.19898438 7.8959375 -7.60890625 8.40125 -8.03125 8.921875 C-7.04125 8.921875 -6.05125 8.921875 -5.03125 8.921875 C-5.03125 13.211875 -5.03125 17.501875 -5.03125 21.921875 C-2.39125 21.921875 0.24875 21.921875 2.96875 21.921875 C3.00613281 21.07882813 3.04351562 20.23578125 3.08203125 19.3671875 C3.14777344 18.27148438 3.21351562 17.17578125 3.28125 16.046875 C3.33925781 14.95632812 3.39726562 13.86578125 3.45703125 12.7421875 C3.62589844 11.81148437 3.79476563 10.88078125 3.96875 9.921875 C4.95875 9.261875 5.94875 8.601875 6.96875 7.921875 C5.8490514 6.91594257 4.7228088 5.9172901 3.59375 4.921875 C2.96726562 4.365 2.34078125 3.808125 1.6953125 3.234375 C0.06485167 1.72015013 0.06485167 1.72015013 -2.03125 1.921875 Z " fill="#5598FE" transform="translate(20.03125,28.078125)"/>
<path d="M0 0 C1.11858398 0.00580078 1.11858398 0.00580078 2.25976562 0.01171875 C3.37254883 0.00591797 3.37254883 0.00591797 4.5078125 0 C10.06899561 0.01008374 10.06899561 0.01008374 12.32226562 1.13671875 C12.32226562 3.11671875 12.32226562 5.09671875 12.32226562 7.13671875 C6.05226563 7.13671875 -0.21773437 7.13671875 -6.67773438 7.13671875 C-6.67773438 0.01213031 -6.67773438 0.01213031 0 0 Z " fill="#C5D7FB" transform="translate(49.677734375,54.86328125)"/>
<path d="M0 0 C0.74958984 0.00902344 1.49917969 0.01804688 2.27148438 0.02734375 C4.11862654 0.05087422 5.96560412 0.08674439 7.8125 0.125 C8.1425 0.785 8.4725 1.445 8.8125 2.125 C7.16701172 2.18107422 7.16701172 2.18107422 5.48828125 2.23828125 C4.03382143 2.30396653 2.57939584 2.37041299 1.125 2.4375 C0.40376953 2.46005859 -0.31746094 2.48261719 -1.06054688 2.50585938 C-5.52295938 2.72999882 -8.5655534 3.25987806 -12.1875 6.125 C-14.01379794 9.19180799 -14.01379794 9.19180799 -15.1875 12.125 C-15.8475 12.125 -16.5075 12.125 -17.1875 12.125 C-16.77174938 7.27457612 -14.77090022 5.28180495 -11.1875 2.125 C-7.39586973 -0.40275351 -4.37875969 -0.09943035 0 0 Z " fill="#DBE6FD" transform="translate(35.1875,1.875)"/>
<path d="M0 0 C-0.33 1.32 -0.66 2.64 -1 4 C-1.99 4 -2.98 4 -4 4 C-3.97679687 4.69867188 -3.95359375 5.39734375 -3.9296875 6.1171875 C-3.90261719 7.48230469 -3.90261719 7.48230469 -3.875 8.875 C-3.85179687 9.77992187 -3.82859375 10.68484375 -3.8046875 11.6171875 C-4 14 -4 14 -6 16 C-9.625 16.125 -9.625 16.125 -13 16 C-13 15.67 -13 15.34 -13 15 C-11.02 15 -9.04 15 -7 15 C-7 10.71 -7 6.42 -7 2 C-3 0 -3 0 0 0 Z " fill="#64A0FE" transform="translate(30,36)"/>
<path d="M0 0 C2.62506802 -0.02690844 5.24986173 -0.04679404 7.875 -0.0625 C8.62136719 -0.07087891 9.36773437 -0.07925781 10.13671875 -0.08789062 C15.7734375 -0.11328125 15.7734375 -0.11328125 18 1 C18 2.98 18 4.96 18 7 C11.73 7 5.46 7 -1 7 C-1 6.67 -1 6.34 -1 6 C4.28 6 9.56 6 15 6 C15 4.35 15 2.7 15 1 C10.05 1 5.1 1 0 1 C0 0.67 0 0.34 0 0 Z " fill="#9FC1FC" transform="translate(44,55)"/>
<path d="M0 0 C0.33 0.66 0.66 1.32 1 2 C2.32 2 3.64 2 5 2 C5 5.96 5 9.92 5 14 C7.64 14 10.28 14 13 14 C13 14.33 13 14.66 13 15 C11.52168779 15.19412181 10.04230684 15.38012131 8.5625 15.5625 C7.73878906 15.66691406 6.91507813 15.77132812 6.06640625 15.87890625 C5.04353516 15.93884766 5.04353516 15.93884766 4 16 C3 15 3 15 2.90234375 12.27734375 C2.91394531 11.17519531 2.92554688 10.07304688 2.9375 8.9375 C2.94652344 7.83277344 2.95554687 6.72804688 2.96484375 5.58984375 C2.97644531 4.73519531 2.98804688 3.88054688 3 3 C1.68 3 0.36 3 -1 3 C-0.67 2.01 -0.34 1.02 0 0 Z " fill="#4890FE" transform="translate(10,36)"/>
<path d="M0 0 C1.32 0 2.64 0 4 0 C4 2.97 4 5.94 4 9 C2.68 9 1.36 9 0 9 C0 6.03 0 3.06 0 0 Z " fill="#C7DBFB" transform="translate(2,53)"/>
<path d="M0 0 C1.32 0 2.64 0 4 0 C4 2.97 4 5.94 4 9 C2.68 9 1.36 9 0 9 C0 6.03 0 3.06 0 0 Z " fill="#9CBEF7" transform="translate(32,53)"/>
<path d="M0 0 C0.33 0 0.66 0 1 0 C1.33 6.6 1.66 13.2 2 20 C0.68 20.33 -0.64 20.66 -2 21 C-2 19.68 -2 18.36 -2 17 C-1.34 17 -0.68 17 0 17 C0 11.39 0 5.78 0 0 Z " fill="#C8DEFF" transform="translate(5,28)"/>
</svg>
