<?xml version="1.0" encoding="UTF-8"?>
<svg version="1.1" xmlns="http://www.w3.org/2000/svg" width="64" height="64">
<path d="M0 0 C0.82435547 0.15791016 1.64871094 0.31582031 2.49804688 0.47851562 C2.9765625 2.9765625 2.9765625 2.9765625 2.49804688 6.47851562 C0.28510129 9.49790392 -2.42997633 11.95897047 -5.15820312 14.50976562 C-6.32349548 15.64097839 -6.32349548 15.64097839 -7.5123291 16.79504395 C-10.83579095 20.02037898 -14.1935472 23.20917361 -17.54833984 26.40185547 C-19.99291501 28.7380996 -22.4194769 31.09199566 -24.84570312 33.44726562 C-25.99407654 34.52095398 -25.99407654 34.52095398 -27.16564941 35.61633301 C-31.39386533 39.57631098 -31.39386533 39.57631098 -32.98046875 44.98046875 C-32.82255859 45.80482422 -32.66464844 46.62917969 -32.50195312 47.47851562 C-33.98695312 47.97351562 -33.98695312 47.97351562 -35.50195312 48.47851562 C-35.50195312 49.46851563 -35.50195312 50.45851562 -35.50195312 51.47851562 C-34.32632813 51.66414063 -34.32632813 51.66414063 -33.12695312 51.85351562 C-30.50195312 52.47851562 -30.50195312 52.47851562 -28.50195312 54.47851562 C-28.50195312 55.46851563 -28.50195312 56.45851562 -28.50195312 57.47851562 C-26.52195313 57.47851562 -24.54195312 57.47851562 -22.50195312 57.47851562 C-22.97658062 55.16507972 -23.45677591 52.85278543 -23.93945312 50.54101562 C-24.20628906 49.25324219 -24.473125 47.96546875 -24.74804688 46.63867188 C-25.17376929 43.63212683 -25.17376929 43.63212683 -26.50195312 42.47851562 C-26.54259145 40.81234447 -26.54467413 39.14463468 -26.50195312 37.47851562 C-25.51195312 37.14851563 -24.52195313 36.81851563 -23.50195312 36.47851562 C-23.31632812 35.58132812 -23.31632812 35.58132812 -23.12695312 34.66601562 C-22.19396194 31.40054649 -20.25643826 30.35657367 -17.50195312 28.47851562 C-14.61194694 26.92235845 -12.79182163 26.48455455 -9.50195312 26.41601562 C-5.31806915 27.89780787 -3.52245217 30.6073825 -1.50195312 34.47851562 C-1.50195312 35.13851562 -1.50195312 35.79851563 -1.50195312 36.47851562 C-0.51195312 36.80851562 0.47804687 37.13851562 1.49804688 37.47851562 C1.92096822 41.84870283 0.66719762 45.20480268 -0.76757812 49.25195312 C-1.66127076 51.96155312 -2.13958654 54.65205628 -2.50195312 57.47851562 C-1.69757812 57.45789062 -0.89320312 57.43726563 -0.06445312 57.41601562 C2.49804688 57.47851562 2.49804688 57.47851562 3.49804688 58.47851562 C3.49804688 60.45851562 3.49804688 62.43851563 3.49804688 64.47851562 C-17.62195313 64.47851562 -38.74195313 64.47851562 -60.50195312 64.47851562 C-60.50195312 62.49851563 -60.50195312 60.51851562 -60.50195312 58.47851562 C-58.02695312 57.98351563 -58.02695312 57.98351563 -55.50195312 57.47851562 C-55.83195312 56.98351563 -56.16195312 56.48851562 -56.50195312 55.97851562 C-57.90231746 52.47760478 -57.97908114 49.17075243 -57.50195312 45.47851562 C-56.221756 42.53406225 -55.2470455 41.00008028 -52.62695312 39.16601562 C-50.15364826 38.36582876 -48.08578607 38.33496935 -45.50195312 38.47851562 C-45.17195313 37.48851562 -44.84195313 36.49851563 -44.50195312 35.47851562 C-43.67759766 35.63642578 -42.85324219 35.79433594 -42.00390625 35.95703125 C-36.56721117 35.21414765 -34.11278429 31.71768757 -30.47070312 27.82226562 C-29.33949036 26.65697327 -29.33949036 26.65697327 -28.1854248 25.46813965 C-25.776046 22.98545848 -23.38695132 20.48461387 -21.00195312 17.97851562 C-17.86292428 14.68010027 -14.70476535 11.40187622 -11.53320312 8.13476562 C-10.81741089 7.36918335 -10.10161865 6.60360107 -9.36413574 5.81481934 C-4.28238839 0.58515625 -4.28238839 0.58515625 0 0 Z " fill="#5F9EFE" transform="translate(60.501953125,-0.47851562499999994)"/>
<path d="M0 0 C2.1875 0.0625 2.1875 0.0625 5 1 C7.38627358 3.56685645 10 6.38918448 10 10 C10.99 10.33 11.98 10.66 13 11 C13.42292134 15.3701872 12.16915074 18.72628706 10.734375 22.7734375 C9.84068237 25.4830375 9.36236658 28.17354065 9 31 C10.2065625 30.9690625 10.2065625 30.9690625 11.4375 30.9375 C14 31 14 31 15 32 C15 33.98 15 35.96 15 38 C-6.12 38 -27.24 38 -49 38 C-49 36.02 -49 34.04 -49 32 C-48.01 32 -47.02 32 -46 32 C-46.33 33.32 -46.66 34.64 -47 36 C-27.2 36 -7.4 36 13 36 C12.67 35.34 12.34 34.68 12 34 C5.73 33.67 -0.54 33.34 -7 33 C-7 32.67 -7 32.34 -7 32 C-2.71 32 1.58 32 6 32 C6.144375 30.1025 6.28875 28.205 6.4375 26.25 C6.71170311 22.64618768 7.11924541 19.52301835 8 16 C1.73 16 -4.54 16 -11 16 C-11 15.67 -11 15.34 -11 15 C-3.74 15 3.52 15 11 15 C10.505 14.01 10.505 14.01 10 13 C3.73 12.67 -2.54 12.34 -9 12 C-9 11.67 -9 11.34 -9 11 C-3.39 11 2.22 11 8 11 C7.505 10.01 7.505 10.01 7 9 C6.01 8.67 5.02 8.34 4 8 C3.3125 5.9375 3.3125 5.9375 3 4 C0.525 3.505 0.525 3.505 -2 3 C-1.34 2.01 -0.68 1.02 0 0 Z " fill="#428EFE" transform="translate(49,26)"/>
<path d="M0 0 C0.33 0.66 0.66 1.32 1 2 C1.58007812 1.85820313 2.16015625 1.71640625 2.7578125 1.5703125 C8.97393377 0.40094315 8.97393377 0.40094315 11.93359375 2.12890625 C13.57502091 3.69948044 14.86899843 5.02629138 16 7 C16 8.32 16 9.64 16 11 C15.01 11 14.02 11 13 11 C13 11.66 13 12.32 13 13 C14.258125 12.938125 15.51625 12.87625 16.8125 12.8125 C20.71722035 12.80558899 20.71722035 12.80558899 23 14.375 C24 16 24 16 24 18 C21.10359882 18.08120751 18.20949088 18.14059421 15.3125 18.1875 C14.49587891 18.21263672 13.67925781 18.23777344 12.83789062 18.26367188 C8.04892863 18.32183741 4.8850038 18.13380189 1 15 C-0.73523928 12.35582586 -1 11.21534057 -1 8 C-1.66 8 -2.32 8 -3 8 C-2.45276317 4.62537285 -1.9451 2.91765 0 0 Z " fill="#DCE6FC" transform="translate(6,40)"/>
<path d="M0 0 C5.94 0 11.88 0 18 0 C17.34 5.28 16.68 10.56 16 16 C11.38 16 6.76 16 2 16 C0.77731709 10.34509154 0 5.84044472 0 0 Z " fill="#E6ECFC" transform="translate(39,42)"/>
<path d="M0 0 C0.99 0 1.98 0 3 0 C3.45375 1.11375 3.9075 2.2275 4.375 3.375 C5.72465986 6.96199008 5.72465986 6.96199008 8 9 C10.57061311 9.64767793 10.57061311 9.64767793 13 10 C13 10.99 13 11.98 13 13 C11.906875 13.33 10.81375 13.66 9.6875 14 C7.21255701 15.02705124 6.21249 15.62850886 4.8671875 17.98046875 C4.14756289 19.95419645 3.56398345 21.97629466 3 24 C2.01 24 1.02 24 0 24 C-0.2475 22.906875 -0.495 21.81375 -0.75 20.6875 C-2.03569781 16.89469145 -2.58713933 15.86156036 -6 14 C-6.99 13.67 -7.98 13.34 -9 13 C-9 12.01 -9 11.02 -9 10 C-7.88625 9.649375 -6.7725 9.29875 -5.625 8.9375 C-3.66818521 8.19669368 -3.66818521 8.19669368 -2 7 C-0.46954015 3.44107712 -0.46954015 3.44107712 0 0 Z " fill="#4690FE" transform="translate(27,0)"/>
<path d="M0 0 C0.99 0 1.98 0 3 0 C3.433125 0.969375 3.86625 1.93875 4.3125 2.9375 C5.7014861 6.27731765 5.7014861 6.27731765 9 7 C9 7.99 9 8.98 9 10 C8.401875 10.20625 7.80375 10.4125 7.1875 10.625 C4.18981233 12.50926082 3.38638224 14.81132084 2 18 C0 17 0 17 -1.4375 14 C-2.70863827 10.71082942 -2.70863827 10.71082942 -6 10 C-6 9.01 -6 8.02 -6 7 C-5.071875 6.6596875 -5.071875 6.6596875 -4.125 6.3125 C-1.38589791 4.62070165 -0.94975528 3.00755839 0 0 Z " fill="#5496FE" transform="translate(6,16)"/>
<path d="M0 0 C-1.37297814 3.07693831 -2.94214627 5.19457024 -5.31640625 7.57519531 C-5.99050537 8.25559875 -6.66460449 8.9360022 -7.35913086 9.63702393 C-8.08624268 10.36008728 -8.81335449 11.08315063 -9.5625 11.828125 C-10.68313843 12.95163361 -10.68313843 12.95163361 -11.82641602 14.09783936 C-13.40427919 15.67706204 -14.98466499 17.25376774 -16.56738281 18.828125 C-18.99777965 21.24778946 -21.41730061 23.67796189 -23.8359375 26.109375 C-25.36915052 27.64126697 -26.90298352 29.17253872 -28.4375 30.703125 C-29.16461182 31.43428528 -29.89172363 32.16544556 -30.64086914 32.91876221 C-31.31496826 33.58655701 -31.98906738 34.25435181 -32.68359375 34.94238281 C-33.57389282 35.8302951 -33.57389282 35.8302951 -34.48217773 36.73614502 C-36 38 -36 38 -38 38 C-36.62702186 34.92306169 -35.05785373 32.80542976 -32.68359375 30.42480469 C-32.00949463 29.74440125 -31.33539551 29.0639978 -30.64086914 28.36297607 C-29.91375732 27.63991272 -29.18664551 26.91684937 -28.4375 26.171875 C-27.69040771 25.42286926 -26.94331543 24.67386353 -26.17358398 23.90216064 C-24.59572081 22.32293796 -23.01533501 20.74623226 -21.43261719 19.171875 C-19.00222035 16.75221054 -16.58269939 14.32203811 -14.1640625 11.890625 C-12.63084948 10.35873303 -11.09701648 8.82746128 -9.5625 7.296875 C-8.83538818 6.56571472 -8.10827637 5.83455444 -7.35913086 5.08123779 C-6.68503174 4.41344299 -6.01093262 3.74564819 -5.31640625 3.05761719 C-4.72287354 2.46567566 -4.12934082 1.87373413 -3.51782227 1.26385498 C-2 -0 -2 -0 0 0 Z " fill="#9ABDF7" transform="translate(61,2)"/>
<path d="M0 0 C5.94 0 11.88 0 18 0 C17.34 5.28 16.68 10.56 16 16 C11.38 16 6.76 16 2 16 C2 15.67 2 15.34 2 15 C5.96 15 9.92 15 14 15 C14.33 11.7 14.66 8.4 15 5 C13.02 5 11.04 5 9 5 C9.33 4.01 9.66 3.02 10 2 C8.68 2 7.36 2 6 2 C6.33 2.99 6.66 3.98 7 5 C5.824375 4.9690625 5.824375 4.9690625 4.625 4.9375 C2.01885039 4.81315937 2.01885039 4.81315937 0 6 C0 4.02 0 2.04 0 0 Z " fill="#8CB7FD" transform="translate(39,42)"/>
<path d="M0 0 C7.26 0 14.52 0 22 0 C22.33 0.99 22.66 1.98 23 3 C15.41 3 7.82 3 0 3 C0 2.01 0 1.02 0 0 Z " fill="#B4CEFC" transform="translate(37,38)"/>
<path d="M0 0 C0.33 1.98 0.66 3.96 1 6 C-3.62 6 -8.24 6 -13 6 C-13 5.34 -13 4.68 -13 4 C-12.01 4 -11.02 4 -10 4 C-10 3.01 -10 2.02 -10 1 C-6.21812119 -0.83691257 -4.05431692 -1.15837626 0 0 Z " fill="#9CBDF7" transform="translate(53,30)"/>
<path d="M0 0 C0.7425 0.185625 1.485 0.37125 2.25 0.5625 C4.94990963 0.99203108 6.44631077 0.85122974 9 0 C8.814375 0.7425 8.62875 1.485 8.4375 2.25 C8.00796892 4.94990963 8.14877026 6.44631077 9 9 C8.2575 8.814375 7.515 8.62875 6.75 8.4375 C4.05009037 8.00796892 2.55368923 8.14877026 0 9 C0.185625 8.2575 0.37125 7.515 0.5625 6.75 C0.99203108 4.05009037 0.85122974 2.55368923 0 0 Z " fill="#4091FF" transform="translate(6,2)"/>
<path d="M0 0 C2.625 0.375 2.625 0.375 5 1 C5.042721 2.66611905 5.04063832 4.33382885 5 6 C4 7 4 7 1.4375 7.0625 C0.2309375 7.0315625 0.2309375 7.0315625 -1 7 C-1.625 4.625 -1.625 4.625 -2 2 C-1.34 1.34 -0.68 0.68 0 0 Z " fill="#4F95FE" transform="translate(58,23)"/>
<path d="M0 0 C1.2065625 0.0309375 1.2065625 0.0309375 2.4375 0.0625 C3.0625 2.4375 3.0625 2.4375 3.4375 5.0625 C2.7775 5.7225 2.1175 6.3825 1.4375 7.0625 C-1.1875 6.6875 -1.1875 6.6875 -3.5625 6.0625 C-3.605221 4.39638095 -3.60313832 2.72867115 -3.5625 1.0625 C-2.5625 0.0625 -2.5625 0.0625 0 0 Z " fill="#5094FE" transform="translate(54.5625,16.9375)"/>
<path d="M0 0 C0.66 0 1.32 0 2 0 C1.34 4.95 0.68 9.9 0 15 C-4.62 15 -9.24 15 -14 15 C-14 14.67 -14 14.34 -14 14 C-10.04 14 -6.08 14 -2 14 C-1.855625 12.618125 -1.71125 11.23625 -1.5625 9.8125 C-1.19640857 6.49675762 -0.73561107 3.25770618 0 0 Z " fill="#B8CFFC" transform="translate(55,43)"/>
<path d="M0 0 C1.65 1.65 3.3 3.3 5 5 C4.01 6.32 3.02 7.64 2 9 C0.68 8.34 -0.64 7.68 -2 7 C-2 3 -2 3 0 0 Z " fill="#DCE6FC" transform="translate(28,7)"/>
<path d="M0 0 C1.65 0 3.3 0 5 0 C5.66 3.63 6.32 7.26 7 11 C4 10 4 10 2.8125 8.125 C2 6 2 6 2 3 C1.34 3 0.68 3 0 3 C0 2.01 0 1.02 0 0 Z " fill="#F2F6FE" transform="translate(3,45)"/>
<path d="M0 0 C0.99 0.33 1.98 0.66 3 1 C3 1.66 3 2.32 3 3 C-2.94 3 -8.88 3 -15 3 C-14.67 2.34 -14.34 1.68 -14 1 C-7.07 1.495 -7.07 1.495 0 2 C0 1.34 0 0.68 0 0 Z " fill="#5E9CFC" transform="translate(54,34)"/>
<path d="M0 0 C2.97 0.495 2.97 0.495 6 1 C6.33 1.99 6.66 2.98 7 4 C5.824375 3.9690625 5.824375 3.9690625 4.625 3.9375 C2.01885039 3.81315937 2.01885039 3.81315937 0 5 C0 3.35 0 1.7 0 0 Z " fill="#A6C7FD" transform="translate(39,43)"/>
<path d="M0 0 C3.36179774 1.44077046 5.59156268 3.24750021 8 6 C8 6.66 8 7.32 8 8 C4.63820226 6.55922954 2.40843732 4.75249979 0 2 C0 1.34 0 0.68 0 0 Z " fill="#D0DFFC" transform="translate(17,38)"/>
</svg>
