<?xml version="1.0" encoding="UTF-8"?>
<!DOCTYPE svg PUBLIC "-//W3C//DTD SVG 1.1//EN" "http://www.w3.org/Graphics/SVG/1.1/DTD/svg11.dtd">
<svg xmlns="http://www.w3.org/2000/svg" version="1.1" width="435px" height="452px" style="shape-rendering:geometricPrecision; text-rendering:geometricPrecision; image-rendering:optimizeQuality; fill-rule:evenodd; clip-rule:evenodd" xmlns:xlink="http://www.w3.org/1999/xlink">
<g><path style="opacity:1" fill="#d5f7cb" d="M 169.5,-0.5 C 171.5,-0.5 173.5,-0.5 175.5,-0.5C 175.5,-0.166667 175.5,0.166667 175.5,0.5C 171.843,0.505997 168.51,1.506 165.5,3.5C 165.369,2.76109 165.536,2.09442 166,1.5C 167.302,0.915201 168.469,0.248534 169.5,-0.5 Z"/></g>
<g><path style="opacity:1" fill="#bef4b2" d="M 175.5,0.5 C 177.017,0.510559 178.184,1.17723 179,2.5C 180.52,5.48809 180.686,8.48809 179.5,11.5C 176.151,12.5115 172.817,13.5115 169.5,14.5C 167.418,14.3757 165.918,13.3757 165,11.5C 164.199,8.63305 164.366,5.96638 165.5,3.5C 168.51,1.506 171.843,0.505997 175.5,0.5 Z"/></g>
<g><path style="opacity:0.999" fill="#e5f2f8" d="M 434.5,234.5 C 434.5,237.5 434.5,240.5 434.5,243.5C 432.272,256.627 426.772,268.293 418,278.5C 404.426,292.928 389.593,305.595 373.5,316.5C 349.002,282.219 323.502,248.552 297,215.5C 293.333,218.5 289.667,221.5 286,224.5C 281.167,218.167 276.333,211.833 271.5,205.5C 301.47,170.346 307.636,131.346 290,88.5C 277.423,64.0869 258.589,46.4202 233.5,35.5C 252.631,8.12104 278.631,-1.71229 311.5,6C 321.466,8.41939 330.133,13.0861 337.5,20C 354.314,39.8877 365.481,62.721 371,88.5C 373.814,106.198 376.814,123.865 380,141.5C 383.418,159.665 391.084,175.665 403,189.5C 411.691,197.258 419.691,205.591 427,214.5C 430.964,220.736 433.464,227.403 434.5,234.5 Z"/></g>
<g><path style="opacity:1" fill="#fdbfc2" d="M 71.5,2.5 C 79.6544,4.49049 81.821,9.15716 78,16.5C 71.4661,20.1943 66.6328,18.6943 63.5,12C 63.891,6.78487 66.5577,3.6182 71.5,2.5 Z"/></g>
<g><path style="opacity:1" fill="#d2f8cb" d="M 179.5,11.5 C 176.897,15.2585 173.564,16.2585 169.5,14.5C 172.817,13.5115 176.151,12.5115 179.5,11.5 Z"/></g>
<g><path style="opacity:0.035" fill="#f8faf3" d="M 109.5,22.5 C 110.833,23.1667 110.833,23.1667 109.5,22.5 Z"/></g>
<g><path style="opacity:1" fill="#becaf7" d="M 112.5,39.5 C 112.217,38.7109 111.717,38.0442 111,37.5C 109.26,38.7158 108.26,40.3825 108,42.5C 107.309,40.1088 106.309,40.1088 105,42.5C 102.551,41.0937 101.551,39.0937 102,36.5C 103.833,35.3333 105.333,33.8333 106.5,32C 100.926,27.6052 101.592,24.9385 108.5,24C 109.69,27.5085 111.69,28.1752 114.5,26C 114.167,25.6667 113.833,25.3333 113.5,25C 114.872,24.5983 116.205,24.0983 117.5,23.5C 119.063,24.9448 120.396,26.6115 121.5,28.5C 119.5,29.8333 117.833,31.5 116.5,33.5C 117.982,35.4829 119.649,37.3163 121.5,39C 119.983,40.6851 118.316,42.1851 116.5,43.5C 115.16,42.1335 113.827,40.8001 112.5,39.5 Z"/></g>
<g><path style="opacity:0.035" fill="#fdfef3" d="M 222.5,28.5 C 223.833,29.1667 223.833,29.1667 222.5,28.5 Z"/></g>
<g><path style="opacity:1" fill="#fcfdfd" d="M 183.5,32.5 C 223.484,29.9735 255.317,44.6402 279,76.5C 280.86,80.2198 282.693,83.8864 284.5,87.5C 286.787,94.7022 289.454,101.702 292.5,108.5C 301.987,156.674 286.321,194.174 245.5,221C 231.248,228.898 215.915,233.064 199.5,233.5C 189.472,232.761 179.472,231.761 169.5,230.5C 131.308,219.14 107.141,194.14 97,155.5C 94.4304,142.901 93.9304,130.234 95.5,117.5C 103.625,77.878 126.625,51.0446 164.5,37C 170.913,35.3559 177.246,33.8559 183.5,32.5 Z"/></g>
<g><path style="opacity:0.035" fill="#fdfff2" d="M 112.5,39.5 C 111.833,40.1667 111.833,40.1667 112.5,39.5 Z"/></g>
<g><path style="opacity:0.035" fill="#f9fff3" d="M 96.5,40.5 C 97.8333,41.1667 97.8333,41.1667 96.5,40.5 Z"/></g>
<g><path style="opacity:1" fill="#81c3d5" d="M 206.5,29.5 C 197.774,29.1614 189.107,29.6614 180.5,31C 181.737,31.2321 182.737,31.7321 183.5,32.5C 177.246,33.8559 170.913,35.3559 164.5,37C 126.625,51.0446 103.625,77.878 95.5,117.5C 95.0276,115.469 94.0276,113.802 92.5,112.5C 93.5317,104.905 95.8651,97.7383 99.5,91C 99.1667,90.6667 98.8333,90.3333 98.5,90C 102.567,84.0258 106.234,77.8591 109.5,71.5C 115.842,64.7914 122.176,58.1248 128.5,51.5C 129.71,51.0679 130.71,50.4013 131.5,49.5C 153.914,33.0271 178.914,26.3605 206.5,29.5 Z"/></g>
<g><path style="opacity:0.075" fill="#fef7f1" d="M 131.5,49.5 C 130.833,48.1667 130.833,48.1667 131.5,49.5 Z"/></g>
<g><path style="opacity:0.075" fill="#fefff1" d="M 128.5,51.5 C 127.833,50.1667 127.833,50.1667 128.5,51.5 Z"/></g>
<g><path style="opacity:0.035" fill="#fafcf3" d="M 123.5,53.5 C 124.833,54.1667 124.833,54.1667 123.5,53.5 Z"/></g>
<g><path style="opacity:1" fill="#79c0d2" d="M 185.5,51.5 C 227.652,50.1937 256.819,68.8603 273,107.5C 282.862,146.587 271.695,178.087 239.5,202C 201.9,222.297 167.4,218.131 136,189.5C 114.054,164.102 108.387,135.436 119,103.5C 132.294,74.6945 154.46,57.3612 185.5,51.5 Z"/></g>
<g><path style="opacity:1" fill="#ecf5fa" d="M 209.5,57.5 C 243.047,65.213 263.88,85.8797 272,119.5C 276.205,155.922 262.705,183.422 231.5,202C 194.007,218.504 161.507,211.671 134,181.5C 132.235,178.968 130.735,176.301 129.5,173.5C 123.413,121.849 143.413,84.6825 189.5,62C 195.972,59.5632 202.639,58.0632 209.5,57.5 Z"/></g>
<g><path style="opacity:0.035" fill="#fefff3" d="M 109.5,71.5 C 108.833,70.1667 108.833,70.1667 109.5,71.5 Z"/></g>
<g><path style="opacity:1" fill="#cfe7f4" d="M 209.5,57.5 C 202.639,58.0632 195.972,59.5632 189.5,62C 143.413,84.6825 123.413,121.849 129.5,173.5C 112.495,143.883 113.661,114.883 133,86.5C 153.119,62.2981 178.619,52.6314 209.5,57.5 Z"/></g>
<g><path style="opacity:1" fill="#e7dba5" d="M 57.5,84.5 C 72.7511,83.9283 77.9178,90.9283 73,105.5C 64.0543,114.08 56.0543,113.413 49,103.5C 46.5149,94.4868 49.3482,88.1534 57.5,84.5 Z"/></g>
<g><path style="opacity:1" fill="#fdfcf9" d="M 57.5,90.5 C 64.0929,89.5127 67.5929,92.1793 68,98.5C 66.125,104.155 62.2916,105.989 56.5,104C 52.3719,99.0885 52.7052,94.5885 57.5,90.5 Z"/></g>
<g><path style="opacity:1" fill="#e0eff7" d="M 284.5,87.5 C 288.529,93.9065 291.196,100.906 292.5,108.5C 289.454,101.702 286.787,94.7022 284.5,87.5 Z"/></g>
<g><path style="opacity:0.035" fill="#fefff3" d="M 70.5,113.5 C 71.8333,114.167 71.8333,114.167 70.5,113.5 Z"/></g>
<g><path style="opacity:1" fill="#a4d4e1" d="M 92.5,113.5 C 91.723,124.148 91.3897,134.815 91.5,145.5C 90.8343,141.514 90.501,137.347 90.5,133C 90.3534,126.269 91.0201,119.769 92.5,113.5 Z"/></g>
<g><path style="opacity:0.999" fill="#e5f2f8" d="M 91.5,149.5 C 102.041,198.053 131.707,227.22 180.5,237C 195.012,238.266 209.345,237.266 223.5,234C 230.956,231.296 238.289,228.629 245.5,226C 250.359,232.025 255.025,238.191 259.5,244.5C 256.505,247.325 253.338,249.992 250,252.5C 249.333,253.5 249.333,254.5 250,255.5C 275.509,288.53 301.009,321.53 326.5,354.5C 321.632,362.231 317.799,370.564 315,379.5C 312.504,391.47 310.171,403.47 308,415.5C 299.529,435.48 284.696,447.48 263.5,451.5C 259.833,451.5 256.167,451.5 252.5,451.5C 234.787,449.324 218.454,443.157 203.5,433C 180.205,417.716 162.705,397.549 151,372.5C 138.178,350.662 119.678,335.829 95.5,328C 82.2858,325.017 68.9525,322.684 55.5,321C 41.261,316.445 29.4277,308.279 20,296.5C 12.6416,287.812 6.97492,278.145 3,267.5C 1.50382,262.095 0.337157,256.761 -0.5,251.5C -0.5,248.167 -0.5,244.833 -0.5,241.5C 4.67248,203.168 24.6725,175.668 59.5,159C 69.8536,155.296 80.5203,153.462 91.5,153.5C 91.5,152.167 91.5,150.833 91.5,149.5 Z"/></g>
<g><path style="opacity:1" fill="#78bfd1" d="M 206.5,29.5 C 215.831,30.0832 224.831,32.0832 233.5,35.5C 258.589,46.4202 277.423,64.0869 290,88.5C 307.636,131.346 301.47,170.346 271.5,205.5C 276.333,211.833 281.167,218.167 286,224.5C 289.667,221.5 293.333,218.5 297,215.5C 323.502,248.552 349.002,282.219 373.5,316.5C 379.581,330.862 376.914,343.362 365.5,354C 357.147,360.118 347.814,362.118 337.5,360C 333.528,358.681 329.861,356.847 326.5,354.5C 301.009,321.53 275.509,288.53 250,255.5C 249.333,254.5 249.333,253.5 250,252.5C 253.338,249.992 256.505,247.325 259.5,244.5C 255.025,238.191 250.359,232.025 245.5,226C 238.289,228.629 230.956,231.296 223.5,234C 209.345,237.266 195.012,238.266 180.5,237C 131.707,227.22 102.041,198.053 91.5,149.5C 91.5,148.167 91.5,146.833 91.5,145.5C 91.3897,134.815 91.723,124.148 92.5,113.5C 92.5,113.167 92.5,112.833 92.5,112.5C 94.0276,113.802 95.0276,115.469 95.5,117.5C 93.9304,130.234 94.4304,142.901 97,155.5C 107.141,194.14 131.308,219.14 169.5,230.5C 179.317,233.702 189.317,234.702 199.5,233.5C 215.915,233.064 231.248,228.898 245.5,221C 286.321,194.174 301.987,156.674 292.5,108.5C 291.196,100.906 288.529,93.9065 284.5,87.5C 282.693,83.8864 280.86,80.2198 279,76.5C 255.317,44.6402 223.484,29.9735 183.5,32.5C 182.737,31.7321 181.737,31.2321 180.5,31C 189.107,29.6614 197.774,29.1614 206.5,29.5 Z"/></g>
<g><path style="opacity:1" fill="#fbfdfd" d="M 267.5,208.5 C 273.118,213.802 278.118,219.802 282.5,226.5C 276.17,231.992 269.67,237.326 263,242.5C 257.975,236.309 253.142,229.976 248.5,223.5C 255.448,219.203 261.781,214.203 267.5,208.5 Z"/></g>
<g><path style="opacity:1" fill="#77bfd2" d="M 190.5,139.5 C 204.575,137.589 212.575,143.589 214.5,157.5C 213.167,157.5 211.833,157.5 210.5,157.5C 207.54,144.855 200.207,141.022 188.5,146C 185.601,148.962 183.601,152.462 182.5,156.5C 181.311,157.429 179.978,157.762 178.5,157.5C 179.521,149.444 183.521,143.444 190.5,139.5 Z"/></g>
<g><path style="opacity:1" fill="#75bfd0" d="M 222.5,115.5 C 228.83,114.666 231.663,117.333 231,123.5C 227.333,127.5 223.667,127.5 220,123.5C 219.388,120.389 220.221,117.723 222.5,115.5 Z"/></g>
<g><path style="opacity:1" fill="#76bed0" d="M 162.5,115.5 C 170.562,115.232 172.562,118.566 168.5,125.5C 161.874,127.705 159.041,125.372 160,118.5C 161.045,117.627 161.878,116.627 162.5,115.5 Z"/></g>
<g><path style="opacity:1" fill="#d8eef5" d="M 169.5,230.5 C 179.472,231.761 189.472,232.761 199.5,233.5C 189.317,234.702 179.317,233.702 169.5,230.5 Z"/></g>
<g><path style="opacity:1" fill="#fafcfd" d="M 307.5,237.5 C 310.41,239.239 312.91,241.572 315,244.5C 332.167,267 349.333,289.5 366.5,312C 352.322,322.847 338.156,333.681 324,344.5C 304.667,319.996 285.5,295.329 266.5,270.5C 280.419,259.721 294.086,248.721 307.5,237.5 Z"/></g>
<g><path style="opacity:1" fill="#fbeeac" d="M 295.5,221.5 C 299.965,224.808 303.631,228.975 306.5,234C 293.833,244 281.167,254 268.5,264C 266.945,265.289 265.279,265.956 263.5,266C 259.713,262.261 256.88,258.094 255,253.5C 268.66,242.934 282.16,232.268 295.5,221.5 Z"/></g>
<g><path style="opacity:1" fill="#78bfd2" d="M 294.5,261.5 C 296.193,262.475 297.693,263.808 299,265.5C 312.006,282.667 325.173,299.667 338.5,316.5C 337.38,318.596 335.88,318.93 334,317.5C 320.167,299.667 306.333,281.833 292.5,264C 293.381,263.292 294.047,262.458 294.5,261.5 Z"/></g>
<g><path style="opacity:1" fill="#79bfd2" d="M 282.5,270.5 C 283.496,270.414 284.329,270.748 285,271.5C 299.025,289.357 312.858,307.357 326.5,325.5C 325.965,327.101 324.965,327.601 323.5,327C 309.546,309.591 295.713,292.091 282,274.5C 281.421,273.072 281.588,271.738 282.5,270.5 Z"/></g>
<g><path style="opacity:1" fill="#79c0d2" d="M 305.5,253.5 C 306.496,253.414 307.329,253.748 308,254.5C 321.333,271.833 334.667,289.167 348,306.5C 348.829,309.674 347.829,310.674 345,309.5C 331.333,291.833 317.667,274.167 304,256.5C 303.761,255.212 304.261,254.212 305.5,253.5 Z"/></g>
<g><path style="opacity:1" fill="#fcfdfd" d="M 367.5,315.5 C 374.97,327.782 373.637,339.282 363.5,350C 350.526,359.282 338.193,358.616 326.5,348C 340.236,337.147 353.903,326.314 367.5,315.5 Z"/></g>
<g><path style="opacity:0.035" fill="#fefaf3" d="M 327.5,360.5 C 328.833,361.167 328.833,361.167 327.5,360.5 Z"/></g>
<g><path style="opacity:0.995" fill="#e6f3f9" d="M 71.5,355.5 C 96.2028,357.042 113.703,369.042 124,391.5C 129.324,405.928 124.658,414.928 110,418.5C 89.5737,415.743 74.2403,405.41 64,387.5C 58.6304,378.957 58.2971,370.291 63,361.5C 65.6371,359.109 68.4704,357.109 71.5,355.5 Z"/></g>
</svg>
