<?xml version="1.0" encoding="UTF-8"?>
<svg version="1.1" xmlns="http://www.w3.org/2000/svg" width="64" height="64">
<path d="M0 0 C0.309375 0.94875 0.61875 1.8975 0.9375 2.875 C1.87394742 5.86080408 1.87394742 5.86080408 3 8 C3.23076923 13.53846154 3.23076923 13.53846154 2 16 C1.34 16 0.68 16 0 16 C0 16.66 0 17.32 0 18 C1.3921875 17.87625 1.3921875 17.87625 2.8125 17.75 C6 18 6 18 7.875 19.6875 C9.16185671 22.33270547 9.24213848 24.09433826 9 27 C10.32 27.66 11.64 28.32 13 29 C13 34.28 13 39.56 13 45 C10.525 45.495 10.525 45.495 8 46 C8.11409593 47.45922693 8.24165544 48.91740598 8.375 50.375 C8.47941406 51.59316406 8.47941406 51.59316406 8.5859375 52.8359375 C8.82892588 55.20334191 8.82892588 55.20334191 11 57 C11.1875 59.5625 11.1875 59.5625 11 62 C10 63 10 63 7.49975586 63.11352539 C6.41573486 63.10828857 5.33171387 63.10305176 4.21484375 63.09765625 C2.46010742 63.09282227 2.46010742 63.09282227 0.66992188 63.08789062 C-0.56177734 63.07951172 -1.79347656 63.07113281 -3.0625 63.0625 C-4.91584961 63.05573242 -4.91584961 63.05573242 -6.80664062 63.04882812 C-9.87114117 63.03699608 -12.93554721 63.02051173 -16 63 C-17.0625 61.1875 -17.0625 61.1875 -18 59 C-17.67 58.01 -17.34 57.02 -17 56 C-16.01 55.505 -16.01 55.505 -15 55 C-14.34444881 52.47266765 -14.34444881 52.47266765 -14 50 C-15.258125 49.979375 -16.51625 49.95875 -17.8125 49.9375 C-18.52019531 49.92589844 -19.22789063 49.91429687 -19.95703125 49.90234375 C-22.20305461 49.91736783 -22.20305461 49.91736783 -25 51 C-28.5625 51.25 -28.5625 51.25 -32 51 C-34.43718285 47.34422573 -34.29880388 45.41330098 -34.3125 41.0625 C-34.32925781 39.83660156 -34.34601562 38.61070313 -34.36328125 37.34765625 C-33.98270399 33.84061637 -33.52791876 32.41410251 -31 30 C-28.3125 29.75 -28.3125 29.75 -26 30 C-25.9175 28.96875 -25.835 27.9375 -25.75 26.875 C-24.91215816 22.54615049 -23.50892005 20.59221886 -21 17 C-20.19422165 15.7492991 -19.39362772 14.49524621 -18.59765625 13.23828125 C-17.75272007 11.92961266 -16.90766659 10.6210198 -16.0625 9.3125 C-15.64548828 8.64927734 -15.22847656 7.98605469 -14.79882812 7.30273438 C-10.82391631 1.20213556 -7.61025198 -1.94680865 0 0 Z " fill="#4E94FE" transform="translate(40,1)"/>
<path d="M0 0 C2.31 0.33 4.62 0.66 7 1 C7.66 0.67 8.32 0.34 9 0 C11.64 0 14.28 0 17 0 C17 8.91 17 17.82 17 27 C14.36 27 11.72 27 9 27 C9 27.99 9 28.98 9 30 C12.63 30 16.26 30 20 30 C20 30.99 20 31.98 20 33 C12.74 33 5.48 33 -2 33 C-2.33 32.01 -2.66 31.02 -3 30 C-0.69 30 1.62 30 4 30 C4 29.34 4 28.68 4 28 C2.68 28 1.36 28 0 28 C0 18.76 0 9.52 0 0 Z " fill="#9CBDF7" transform="translate(28,29)"/>
<path d="M0 0 C6.13769283 0.37577711 9.26963644 2.0419407 14 6 C14 6.66 14 7.32 14 8 C10.37471432 8.20140476 8.13498292 7.85776765 5 6 C5.061875 6.9075 5.12375 7.815 5.1875 8.75 C4.98327924 12.28982642 4.35448165 13.44931155 2 16 C2.99 15.67 3.98 15.34 5 15 C5 19.29 5 23.58 5 28 C3.783125 27.95875 2.56625 27.9175 1.3125 27.875 C-2.2717847 27.85603553 -4.6863227 28.61930112 -8 30 C-10.3125 29.625 -10.3125 29.625 -12 29 C-12 28.34 -12 27.68 -12 27 C-12.99 27.33 -13.98 27.66 -15 28 C-15 25.03 -15 22.06 -15 19 C-14.01 19.33 -13.02 19.66 -12 20 C-12.061875 18.824375 -12.061875 18.824375 -12.125 17.625 C-12 15 -12 15 -10 13 C-7.375 12.375 -7.375 12.375 -5 12 C-4.731875 10.7625 -4.46375 9.525 -4.1875 8.25 C-3.36118005 4.89716221 -2.37328726 2.58904064 0 0 Z " fill="#E2EAFC" transform="translate(21,20)"/>
<path d="M0 0 C0.33 0 0.66 0 1 0 C1.20496094 0.63808594 1.40992188 1.27617188 1.62109375 1.93359375 C1.89050781 2.75988281 2.15992188 3.58617187 2.4375 4.4375 C2.70433594 5.26121094 2.97117187 6.08492187 3.24609375 6.93359375 C3.82155494 8.96219588 3.82155494 8.96219588 5 10 C7.33297433 10.04092937 9.66705225 10.04241723 12 10 C12.433125 8.5459375 12.433125 8.5459375 12.875 7.0625 C14 4 14 4 16 3 C16 7.95 16 12.9 16 18 C13.36 18 10.72 18 8 18 C8 18.99 8 19.98 8 21 C11.63 21 15.26 21 19 21 C19 21.99 19 22.98 19 24 C11.74 24 4.48 24 -3 24 C-3.33 23.01 -3.66 22.02 -4 21 C-1.69 21 0.62 21 3 21 C3 20.01 3 19.02 3 18 C2.01 18 1.02 18 0 18 C0 12.06 0 6.12 0 0 Z " fill="#A2C1F7" transform="translate(29,38)"/>
<path d="M0 0 C0.66 0.33 1.32 0.66 2 1 C-3.18678815 11.55808656 -3.18678815 11.55808656 -6 16 C-3.69 16.33 -1.38 16.66 1 17 C0.34 17.33 -0.32 17.66 -1 18 C-1.33 18.66 -1.66 19.32 -2 20 C-4.31 19.67 -6.62 19.34 -9 19 C-10.98009117 21.97013675 -12.03541559 24.16073227 -12.8125 27.6875 C-13.204375 28.780625 -13.59625 29.87375 -14 31 C-17.125 32.4375 -17.125 32.4375 -20 33 C-20.495 35.475 -20.495 35.475 -21 38 C-21.99 37.67 -22.98 37.34 -24 37 C-23.25 31.25 -23.25 31.25 -21 29 C-18.375 28.875 -18.375 28.875 -16 29 C-15.9175 27.96875 -15.835 26.9375 -15.75 25.875 C-14.91093308 21.53982092 -13.52111641 19.59356388 -11 16 C-10.14879266 14.72501991 -9.30128417 13.44756446 -8.45703125 12.16796875 C-7.57553332 10.84113754 -6.69402275 9.51431472 -5.8125 8.1875 C-5.36197266 7.50751953 -4.91144531 6.82753906 -4.44726562 6.12695312 C-1.11288597 1.11288597 -1.11288597 1.11288597 0 0 Z " fill="#4D95FE" transform="translate(30,2)"/>
<path d="M0 0 C0.763125 0.4125 1.52625 0.825 2.3125 1.25 C2.9725 1.58 3.6325 1.91 4.3125 2.25 C3.70872642 9.61603774 3.70872642 9.61603774 2.0625 12.25 C-0.4066131 13.66092177 -1.89344698 13.73895928 -4.6875 13.25 C-7.43244293 10.88366989 -7.68098472 9.29642138 -8.1875 5.6875 C-7.6875 2.25 -7.6875 2.25 -5.5 0.1875 C-2.6875 -0.75 -2.6875 -0.75 0 0 Z " fill="#5095FE" transform="translate(38.6875,35.75)"/>
<path d="M0 0 C-0.27585937 0.53109375 -0.55171875 1.0621875 -0.8359375 1.609375 C-2.21708904 4.44583387 -3.42064641 7.33419657 -4.625 10.25 C-5.07101563 11.32765625 -5.51703125 12.4053125 -5.9765625 13.515625 C-6.31429688 14.33546875 -6.65203125 15.1553125 -7 16 C-9.31 15.67 -11.62 15.34 -14 15 C-12.68552225 11.43574301 -11.11594205 8.40275366 -9 5.25 C-8.2265625 4.08210937 -8.2265625 4.08210937 -7.4375 2.890625 C-5.05499441 -0.24288778 -4.07806699 0 0 0 Z " fill="#D0DEFC" transform="translate(38,3)"/>
<path d="M0 0 C2.54055845 0.25552438 5.03852505 0.56707159 7.5625 0.9375 C8.27341797 1.03740234 8.98433594 1.13730469 9.71679688 1.24023438 C11.47856957 1.48853791 13.23938152 1.74364039 15 2 C15 2.99 15 3.98 15 5 C7.74 5 0.48 5 -7 5 C-7.33 4.01 -7.66 3.02 -8 2 C-6.865625 1.855625 -5.73125 1.71125 -4.5625 1.5625 C-1.19222799 1.38828522 -1.19222799 1.38828522 0 0 Z " fill="#DCE6FB" transform="translate(33,57)"/>
<path d="M0 0 C1.77049689 -0.05410687 3.54146849 -0.09284119 5.3125 -0.125 C6.29863281 -0.14820312 7.28476562 -0.17140625 8.30078125 -0.1953125 C11 0 11 0 14 2 C14 3.32 14 4.64 14 6 C6.23214286 6.66964286 6.23214286 6.66964286 2.5 3.5625 C0 1 0 1 0 0 Z " fill="#CFDEFC" transform="translate(32,21)"/>
<path d="M0 0 C2.625 0.375 2.625 0.375 5 1 C5.6875 2.75 5.6875 2.75 6 5 C4.5625 7.25 4.5625 7.25 3 9 C1.68 8.67 0.36 8.34 -1 8 C-1.625 5.125 -1.625 5.125 -2 2 C-1.34 1.34 -0.68 0.68 0 0 Z " fill="#D9E3FC" transform="translate(35,38)"/>
<path d="M0 0 C0.66 0.33 1.32 0.66 2 1 C1.67 5.62 1.34 10.24 1 15 C0.34 15 -0.32 15 -1 15 C-1 14.34 -1 13.68 -1 13 C-1.99 13.33 -2.98 13.66 -4 14 C-4 11.03 -4 8.06 -4 5 C-3.01 5.33 -2.02 5.66 -1 6 C-1.020625 5.195625 -1.04125 4.39125 -1.0625 3.5625 C-1 1 -1 1 0 0 Z " fill="#EAF2FE" transform="translate(10,34)"/>
<path d="M0 0 C3.35595828 0.59927826 5.37801226 1.84622436 8 4 C6.35 4 4.7 4 3 4 C2.67 9.61 2.34 15.22 2 21 C1.67 21 1.34 21 1 21 C1 17.04 1 13.08 1 9 C-0.32 9.33 -1.64 9.66 -3 10 C-2.690625 9.46375 -2.38125 8.9275 -2.0625 8.375 C-0.82172561 5.6015043 -0.4090325 2.99957163 0 0 Z " fill="#4991FE" transform="translate(26,26)"/>
<path d="M0 0 C0.33 0 0.66 0 1 0 C1 1.65 1 3.3 1 5 C1.639375 5.268125 2.27875 5.53625 2.9375 5.8125 C5 7 5 7 6 10 C4.68 10 3.36 10 2 10 C1.67 15.61 1.34 21.22 1 27 C0.67 27 0.34 27 0 27 C0 18.09 0 9.18 0 0 Z " fill="#639FFC" transform="translate(45,29)"/>
<path d="M0 0 C0.33 0 0.66 0 1 0 C1 1.65 1 3.3 1 5 C-0.98 5.66 -2.96 6.32 -5 7 C-5.33 8.65 -5.66 10.3 -6 12 C-6.99 11.67 -7.98 11.34 -9 11 C-8.25 5.25 -8.25 5.25 -6 3 C-3.375 2.875 -3.375 2.875 -1 3 C-0.67 2.01 -0.34 1.02 0 0 Z " fill="#448EFF" transform="translate(15,28)"/>
<path d="M0 0 C3.3 0 6.6 0 10 0 C10 0.99 10 1.98 10 3 C6.7 3 3.4 3 0 3 C0 2.01 0 1.02 0 0 Z " fill="#428DFF" transform="translate(47,10)"/>
<path d="M0 0 C0 0.99 0 1.98 0 3 C-5.625 6 -5.625 6 -9 6 C-9 5.01 -9 4.02 -9 3 C-3.375 -0 -3.375 -0 0 0 Z " fill="#428CFF" transform="translate(56,2)"/>
<path d="M0 0 C3.73487777 0.4979837 5.81237635 0.87491756 9 3 C9 3.99 9 4.98 9 6 C5.59687262 4.94124926 2.98646769 3.99097846 0 2 C0 1.34 0 0.68 0 0 Z " fill="#418DFF" transform="translate(47,16)"/>
<path d="M0 0 C0.99 0 1.98 0 3 0 C3 1.98 3 3.96 3 6 C1.35 6 -0.3 6 -2 6 C-1.125 1.125 -1.125 1.125 0 0 Z " fill="#9EBFF7" transform="translate(37,9)"/>
<path d="M0 0 C1.9375 0.8125 1.9375 0.8125 4 2 C4.33 2.99 4.66 3.98 5 5 C3.68 5 2.36 5 1 5 C0.67 3.35 0.34 1.7 0 0 Z " fill="#87B5FD" transform="translate(46,34)"/>
</svg>
